<svg id="Calque_1" data-name="Calque 1" xmlns="http://www.w3.org/2000/svg" viewBox="0 0 820.4 603.9"><defs><style>.cls-1{fill:#826645;}.cls-2{fill:none;}.cls-3{fill:#7a7877;}.cls-4{fill:#474747;}.cls-5,.cls-8{opacity:0.3;}.cls-5,.cls-6,.cls-7,.cls-8,.cls-9{isolation:isolate;}.cls-6,.cls-7{opacity:0.2;}.cls-7{fill:#fff;}.cls-8,.cls-9{font-size:70px;font-family:Roboto-Bold, Roboto;font-weight:700;}.cls-9{fill:#634d38;}</style></defs><title>case</title><g id="Calque_3" data-name="Calque 3"><polygon class="cls-1" points="0 0 2.3 603.9 45.2 603.9 45.2 0 0 0"/><polygon class="cls-1" points="775.2 0 777.5 603.9 820.4 603.9 820.4 0 775.2 0"/><polygon class="cls-2" points="45.2 15.1 775.2 15.1 777.4 580.7 45.2 580.7 45.2 15.1"/><polygon class="cls-1" points="45.2 15.1 45.2 54.5 775.2 54.5 775.2 15.1 45.2 15.1"/><rect class="cls-1" x="45.2" y="542.4" width="732.2" height="38.3"/><rect class="cls-1" x="45.2" y="54.5" width="173.9" height="487.9"/><polygon class="cls-1" points="410.2 54.5 411.3 542.4 219 542.4 219 54.5 410.2 54.5"/><polygon class="cls-1" points="601.5 54.5 601.5 542.4 411.3 542.4 410.2 54.5 601.5 54.5"/><polygon class="cls-1" points="775.2 54.5 601.5 54.5 601.5 542.4 777.4 542.4 775.2 54.5"/><polygon class="cls-3" points="802.2 21.5 794.1 22.3 787.6 27.4 786.3 35.1 788.8 42.4 797.3 46.6 805.3 44.4 810.9 38.9 811.8 32.1 808.6 24.5 802.2 21.5"/><polygon class="cls-3" points="800.9 549 792.9 549.8 786.4 555 785 562.7 787.5 570 796 574.1 804 572 809.6 566.4 810.5 559.6 807.3 552 800.9 549"/><polygon class="cls-3" points="28.5 549 20.5 549.8 14 555 12.6 562.7 15.1 570 23.6 574.1 31.6 572 37.2 566.4 38.1 559.6 34.9 552 28.5 549"/><polygon class="cls-3" points="25.7 22.2 17.7 23.1 11.2 28.2 9.8 35.9 12.3 43.2 20.8 47.4 28.8 45.2 34.4 39.7 35.3 32.8 32.1 25.2 25.7 22.2"/><polygon class="cls-1" points="45.2 230.5 776 230.5 776.6 371.5 45.2 371.5 45.2 230.5"/><polygon class="cls-4" points="9.8 35.9 32.1 25.2 35.3 32.8 12.3 43.2 9.8 35.9"/><polygon class="cls-4" points="12.6 562.4 34.9 551.8 38.1 559.4 15.1 569.8 12.6 562.4"/><polygon class="cls-4" points="785 562.5 807.3 551.9 810.5 559.5 787.5 569.9 785 562.5"/><polygon class="cls-4" points="786.3 35 808.6 24.4 811.8 32 788.8 42.3 786.3 35"/><polygon class="cls-5" points="220.8 54.5 220.8 69.3 222.2 101.9 221.5 124.7 220.8 155.1 222.2 206.5 220.8 230.5 219 230.5 219 54.5 220.8 54.5"/><polygon class="cls-5" points="413.1 371.7 413.1 386.1 414.5 417.7 413.8 439.8 413.1 469.2 414.5 519.1 413.1 542.4 411.3 542.4 411.3 371.7 413.1 371.7"/><polygon class="cls-5" points="412.6 54.5 412.1 85.6 412.6 124.3 412.4 159.3 413.1 204 412.6 230.5 410.6 230.5 410.2 54.5 412.6 54.5"/><polygon class="cls-5" points="221.4 371.5 220.9 401.7 221.4 439.3 221.2 473.3 221.9 516.7 221.4 542.4 219.4 542.4 219 371.5 221.4 371.5"/><polygon class="cls-5" points="604.2 54.5 603.5 91.9 604.2 146.9 603.5 194.9 603.8 230.5 601.5 230.5 601.5 54.5 604.2 54.5"/><polygon class="cls-5" points="604.2 371.5 603.5 407.8 604.2 461.2 603.5 507.9 603.8 542.4 601.5 542.4 601.5 371.5 604.2 371.5"/><polygon class="cls-6" points="45.2 542.4 48.9 542.4 48.9 504.9 48.9 375.9 776.6 375.5 776.6 371.5 45.2 371.5 45.2 542.4"/><polygon class="cls-6" points="45.2 230.5 48.9 230.5 48.9 188 48.9 59 775.2 58.5 775.2 54.5 45.2 54.5 45.2 230.5"/><polygon class="cls-7" points="2.3 603.9 6.2 6.2 45.2 6.2 45.2 0 0 0 2.3 603.9"/><polygon class="cls-6" points="45.2 54.5 52.9 26.7 69.7 15.1 45.2 15.1 45.2 54.5"/><polygon class="cls-7" points="69.7 15.1 775.2 25.2 775.2 15.1 69.7 15.1"/><polygon class="cls-7" points="775.2 25.2 786.3 8.7 820.4 0 775.2 0 775.2 25.2"/><rect class="cls-2" x="209.8" y="273.9" width="406.4" height="56"/><text class="cls-8" transform="translate(209.78 326.45)">Comité local</text><rect class="cls-2" x="211.3" y="273.9" width="406.4" height="56"/><text class="cls-9" transform="translate(211.29 326.45)">Comité local</text></g></svg>