<svg id="Calque_1" data-name="Calque 1" xmlns="http://www.w3.org/2000/svg" viewBox="0 0 828.2 561.9"><defs><style>.cls-1{fill:#512c07;}.cls-2{fill:#d1b850;}.cls-3{opacity:0.2;}.cls-3,.cls-4{isolation:isolate;}.cls-4{fill:#fff;opacity:0.1;}</style></defs><title>hand_money</title><g id="Calque_2" data-name="Calque 2"><path class="cls-1" d="M-30.4,341.7l226.5-31.5s160.5-45,165-45,168-30,168-30l138-19.5,57,19.5,70.4,160.4,3.3,14.7-5.3,152-10.7,19.3s-68,142.7-68,140.7S688,695.9,688,695.9l-6.8-53.6,12-66,12-90.7L697.9,469l-87.4-86-24.7,2-24,13.3-45.3,62-.7,32,10.7,32,43.3,33.3,45.3,42.7,14,46,5.3,70.7-16.7,11.3-152-118.7L403,600.9l-70.7-24.7L249.8,525l-22-23.3-148,18L-22.5,543Z" transform="translate(30.4 -215.7)"/><polygon class="cls-2" points="652.9 371.9 659.6 430.6 664.9 501.3 670.9 549.3 686.2 561.9 716.9 557.9 722.9 543.2 718.4 480.2 711.6 426.6 702.9 361.9 689.2 357.9 662.2 360.6 652.9 371.9"/><polygon class="cls-3" points="616.2 169.3 525 172.1 452.3 181.5 431 190.1 454.3 232.1 489.6 256.3 556.9 308.6 546.2 276.6 546.9 244.6 592.2 182.6 616.2 169.3"/><polygon class="cls-4" points="0 126 1.7 169.3 160.7 138.9 313.7 102.3 523.6 51.9 697.5 0 559.5 19.5 391.5 49.5 226.5 94.5 0 126"/><polygon class="cls-3" points="754.5 19.5 784.7 183.9 748.7 289.6 711.6 426.6 718.4 480.2 744.2 506.6 822.9 346.6 828.2 194.6 824.9 179.9 754.5 19.5"/><polygon class="cls-3" points="6.9 300.9 300.2 246.9 361.7 308.6 466.7 360.1 570.2 361 645.6 384.6 659.6 430.6 664.9 501.3 648.2 512.6 496.2 393.9 433.6 385.3 362.9 360.6 280.2 309.3 258.2 285.9 110.2 303.9 7.9 327.3 6.9 300.9"/><polygon class="cls-3" points="689.2 357.9 709.6 539 708 549.5 689.8 551.9 670.9 549.3 686.2 561.9 716.9 557.9 722.9 543.2 702.9 361.9 689.2 357.9"/></g></svg>