<svg id="Calque_1" data-name="Calque 1" xmlns="http://www.w3.org/2000/svg" viewBox="0 0 854.7 536.8"><defs><style>.cls-1{fill:#512c07;}.cls-2{opacity:0.2;}.cls-2,.cls-3{isolation:isolate;}.cls-3{fill:#fff;opacity:0.1;}</style></defs><title>hand_free</title><g id="Calque_2" data-name="Calque 2"><path class="cls-1" d="M-6.9,1171.9l226.5-31.5s160.5-45,165-45,168-30,168-30l138-19.5,57,19.5L818,1225.8l3.3,14.7L847.5,1395l-10.7,19.3-68,140.7-25.2-14.1-7.4-65.9,12-66-19.5-93.2-7.3-16.6-87.3-86.1-24.7,2-24,13.3-45.3,62-.7,32,10.7,32,20.8,52.3,45.3,42.7,14,46,5.3,70.7-16.7,11.3-147-127.6-45.2-18.7-70.7-24.7-82.7-51.3-22-23.3-148,18L1,1373.1Z" transform="translate(6.9 -1045.9)"/><polygon class="cls-2" points="616.5 174.5 525.2 177.4 452.6 186.7 431.2 195.4 440.9 238 483.9 276.9 563.4 332.5 546.5 281.9 547.2 249.9 592.5 187.9 616.5 174.5"/><polygon class="cls-3" points="0.3 131.3 2 174.5 161 144.1 314 107.5 523.9 57.1 697.8 5.3 559.8 24.8 391.8 54.8 226.8 99.8 0.3 131.3"/><polygon class="cls-2" points="754.8 24.8 785 189.1 809.6 323.9 783.3 438.9 766.2 503.8 775.7 509.1 854.7 354.4 828.5 199.9 825.2 185.2 754.8 24.8"/><polygon class="cls-2" points="7.1 306.2 300.5 252.1 362 313.9 467 365.3 570.5 366.3 623.3 408.8 637.3 454.8 642.7 525.5 626 536.8 479 409.3 433.8 390.5 363.2 365.9 280.5 314.5 258.5 291.2 110.5 309.2 8.2 332.5 7.1 306.2"/></g></svg>