<svg id="Calque_1" data-name="Calque 1" xmlns="http://www.w3.org/2000/svg" viewBox="0 0 347.01 335.83"><defs><style>.cls-1{fill:#ffe601;}.cls-2,.cls-3,.cls-4{fill:none;stroke-linecap:round;stroke-miterlimit:10;}.cls-2{stroke:#f49619;stroke-width:10px;}.cls-3{stroke:#feeb15;}.cls-3,.cls-4{stroke-width:3px;}.cls-4{stroke:#fad22c;}</style></defs><title>sun</title><circle class="cls-1" cx="157.49" cy="167.53" r="125.53"/><path class="cls-2" d="M451.59,598c0-75.48,41.54-187.34,178.76-154.68C679.29,454.95,781.81,488.84,782,600c.24,116.52-98.77,184.9-208.61,157.14C515.09,742.39,451.57,677.76,451.59,598Z" transform="translate(-444.56 -432.47)"/><path class="cls-3" d="M451.61,587.16c2.1-92.76,72.85-196.31,185.3-109.15,48,37.18,79.07,53.56,104.26,133.54,43,136.59-41.29,162.52-171,128.26C501.28,721.61,450.63,630.36,451.61,587.16Z" transform="translate(-444.56 -432.47)"/><path class="cls-4" d="M471.42,633c-28.13-88.41,5.16-209.33,139.81-163.41,57.45,19.59,92.18,25,142,92.45,85.05,115.22,13.72,167.12-120.08,176.83C562.06,744,484.52,674.13,471.42,633Z" transform="translate(-444.56 -432.47)"/><path class="cls-4" d="M522.91,716.32c-71.17-36.69-124-132.41-12.56-189.55,47.53-24.38,72.35-43.09,144.23-33.08,122.76,17.1,110,94.39,33,185.31C646.59,727.29,556,733.41,522.91,716.32Z" transform="translate(-444.56 -432.47)"/></svg>