<svg id="Calque_2" data-name="Calque 2" xmlns="http://www.w3.org/2000/svg" viewBox="0 0 753.04 860.62"><defs><style>.cls-1{fill:#367030;}.cls-1,.cls-2{stroke:#1d1d1b;stroke-miterlimit:10;}.cls-2{opacity:0.2;isolation:isolate;}</style></defs><title>leaf</title><g id="palmier"><polygon class="cls-1" points="752.53 672.39 743.59 586.27 707.42 545.72 614.41 675.51 681.07 571.93 675.46 462.88 623.82 361.93 549.91 345.7 504.52 422.96 524.24 227.61 510.86 276.91 496.07 172.55 440.44 139.25 395.19 231.87 423.23 105.6 377.85 16.89 350.61 96.43 324.13 191.03 277.04 83.89 173.33 1.86 227.73 236.48 130.14 151.32 1.02 147.89 97.47 276.09 201.68 411.91 24.48 359.75 95.97 446.68 196.83 553.33 98.03 503.52 163.75 632 273.44 695.54 325.08 796.49 468.56 858.18 593.05 860.11 681.76 814.73 752.53 672.39"/><polygon class="cls-2" points="752.53 672.39 743.59 586.27 707.42 545.72 614.41 675.51 681.07 571.93 675.46 462.88 623.82 361.93 549.91 345.7 504.52 422.96 524.24 227.61 510.86 276.91 496.07 172.55 440.44 139.25 395.19 231.87 423.23 105.6 377.85 16.89 324.13 191.03 277.04 83.89 173.33 1.86 292.18 226.67 461.18 557.05 563.5 738.21 681.76 814.73 752.53 672.39"/></g></svg>