<?xml version="1.0" encoding="utf-8"?>
<!-- Generator: Adobe Illustrator 21.0.2, SVG Export Plug-In . SVG Version: 6.00 Build 0)  -->
<svg version="1.1" id="Calque_1" xmlns="http://www.w3.org/2000/svg" xmlns:xlink="http://www.w3.org/1999/xlink" x="0px" y="0px"
	 viewBox="0 0 1203.9 721.5" style="enable-background:new 0 0 1203.9 721.5;" xml:space="preserve">
<title>logo_prendre_en_main</title>
<path d="M404.6,384c-9.9-4.5-19.1-8.5-28.2-12.8c-29.1-13.7-57-29.2-80-52.1c-11-11-20-23.3-23-39.3c-2.9-15.5,4.2-31.3,18.1-38.8
	c7.4-4,12.9-1.2,14.6,7.1c0.4,1.7,1.6,3.2,3.2,4c6.1,2.2,12.2,4.1,18.5,5.8c26.9,7.5,53.9,14.4,80.6,22.4
	c18.8,5.5,37.3,11.9,55.4,19.3c26.1,11,49.6,26.5,70.8,45.5c19.7,17.6,36.4,37.6,49.3,60.6c6.5,11.7,11.5,24.2,16.9,36.5
	c0.7,2.2,0.5,4.5-0.7,6.5c-6.9,9.5-9.2,20.5-10.8,31.7c-4,28.8-2.4,57.6,0.5,86.2c2.9,29.1,7.4,58.1,11.3,87.1
	c0.9,7,1.1,7.1-5.5,8.7c-31.9,7.9-63.9,15.7-95.8,23.7c-23.7,5.9-47.3,12.1-70.9,18.1c-20.6,5.2-41.2,10.1-62.5,15.3
	c0-3.1,0-5.8,0-8.6c0-28.3-4.4-56.5-13.2-83.4c-15-46.3-41.1-86-73.4-121.9c-28.9-32.1-61.4-60.4-95-87.4
	c-28.8-23.2-54.9-49.5-77.7-78.6c-18.4-23.3-35.2-47.8-50.4-73.3c-14.7-24.7-27.5-50.4-38.3-76.9C3.3,152.9-1.8,114.8,0.5,75.7
	c1-17.6,3.5-35.1,10.8-51.5C15.2,15.6,19.7,7.1,29.1,3c9.7-4.2,20.2-1.7,25.9,7.2c4.8,7.6,9.2,15.9,11.8,24.5
	c7.2,23.7,9.2,48.3,9.8,73c0.4,14.4,0.2,29,1.8,43.3c1.9,17.3,10.2,32.4,18.8,47.3c15.2,26.3,34.4,49.5,55,71.6
	c24.2,25.9,50,50.3,77.2,73.1c18.5,15.7,38.1,29.9,59.4,41.7c20.6,11.3,42.2,20.1,65.9,20.8c17.1,0.6,32.9-4.3,45.8-16.3
	C401.9,387.9,402.9,386.1,404.6,384z"/>
<path d="M837.1,721.5c-8.9-2-17.2-3.8-25.4-5.8c-15.2-3.7-30.3-7.5-45.4-11.3c-24.8-6.2-49.6-12.5-74.4-18.7
	c-27.1-6.8-54.2-13.5-81.3-20.2c-1-0.2-2-0.4-2.9-0.6c-6-1.2-5.9-1.8-4.9-8.1c2.7-16.2,5.4-32.5,7.2-48.9c2.6-24.5,5.1-49,6.5-73.6
	c1.3-23.8,1.1-47.7-6.3-70.7c-1.5-4.5-4.4-8.5-6.5-12.8c-0.7-1.5-1.6-3.5-1.1-4.9c8.6-24.5,21.2-47.3,37.4-67.6
	c16.4-21,36.2-39.1,58.5-53.6c15.5-10.1,32-18.7,49.2-25.7c20.8-8.3,42.7-14.4,64.2-20.8c24.2-7.2,48.6-13.5,72.9-20.3
	c1.9-0.5,3.7-1.4,5.7-1.9c4.4-1,7.8-2.1,8.1-8.1c0.3-5.3,5.1-7.2,11.1-5.5c10.5,2.9,19.7,15.5,20.8,28c1.5,16.4-5.1,29.8-15.1,42
	c-16.4,20-37.3,34.3-59.8,46.4c-16.8,9-34.2,16.7-51.4,25c-1.5,0.7-2.9,1.5-4.8,2.5c5.2,7.7,12.3,12.3,20.2,15.8
	c17.1,7.5,34.8,6.6,52.4,2.2c27-6.8,50.7-20.5,73.1-36.6c44-31.7,82.7-69.2,118.8-109.5c18.2-20.3,34.6-42,47.4-66.2
	c9.3-17.5,15.3-35.7,15.4-56c0.2-23.2,1.9-46.5,4.2-69.7c1.6-16.7,5.3-33.2,13.7-48.1c5.3-9.5,12.6-15.7,24.5-14.3
	c9.3,1.1,14.7,7.2,19.1,14.3c7.7,12.5,10.8,26.6,13,41c3.3,20.5,3.4,41.1,1.6,61.7c-2.3,26.3-8.3,51.8-19.3,75.8
	c-9.4,20.5-19.4,40.8-29.9,60.7c-13.4,25.2-29.6,48.8-46.6,71.7c-21.7,29.1-45.7,56.2-73.4,79.7c-17.8,15.1-35.9,29.9-53.6,45.2
	c-22.6,19.3-43.7,40.3-63.2,62.7c-19.7,22.8-37,47.3-50,74.5c-7.1,15.3-13.2,31.1-18.2,47.2c-8.2,25.5-11,52-11.1,78.7
	C837.3,718.2,837.2,719.3,837.1,721.5z"/>
<path d="M961,274.9c1.6-8.1,3.5-16.2,4.7-24.3c3.1-20.9,6.6-41.7,8.6-62.7c3.2-33.5,4.9-67.1,8.3-100.5c2.2-21.3,6.1-42.6,18.3-61
	c6.4-9.7,14.4-17.7,26.9-18.2c13.7-0.6,25.1,11.1,22.2,24.5c-7.2,33.2-8.8,67-10.7,100.7c-0.5,8.1-1.6,16.2-2.3,24.3
	c-1.3,14.2-7.2,26.8-14.1,39.1c-15.5,27.5-35.5,51.5-56.9,74.5c-1.3,1.4-2.6,2.9-3.8,4.3L961,274.9z"/>
<path d="M246.9,314.5c-9.8-11.2-19.3-21-27.4-31.8c-12-15.8-23.4-32.1-34.3-48.8c-9.2-14-14.4-30.2-15.1-46.8
	c-1.1-21.3-2.2-42.5-4.3-63.7c-1.6-16.3-4.7-32.6-7.2-48.8c-1.4-8.8-1.1-17.2,6-23.5c9.5-8.4,19.6-7.7,29.7-0.9
	c13.3,8.9,19.3,22.8,23.9,37.4c7.1,22.6,7.6,46.1,9.4,69.5c2.7,34.2,6.4,68.3,10.3,102.3C240,277.3,243.7,295.1,246.9,314.5z"/>
<path d="M1029.7,272.3c11.4-53.3,16.7-106.3,19.8-159.7c1.2-20.6,2.1-41.2,7.8-61.2c3.9-13.7,9-26.8,19.1-37.2
	c9.4-9.7,22.5-13.4,32.7-6.8c7.9,5.1,12,14.8,9.4,25.3c-6.3,25.7-7.4,52-9.3,78.2c-1.2,16.6-2.1,33.2-4.4,49.7
	c-2.1,14.8-9.9,27.7-17.6,40.3c-15.5,25.2-34.6,47.7-54.5,69.4C1031.7,271,1030.8,271.7,1029.7,272.3z"/>
<path d="M174,267.8c-6.2-7-12.6-13.9-18.7-21c-15.9-18.5-30.5-37.9-42.7-59.1c-9-15.6-14-33.2-14.7-51.2c-1-21.1-2.1-42.2-4.2-63.2
	c-1.5-15-4.4-29.9-7-44.8c-2-11.2,1.2-20.3,9.4-25.3c8.6-5.2,19.3-4.1,27.9,2.6c9.3,7.3,15.1,17,19.3,27.8
	c8.5,21.7,10.4,44.5,12,67.4c2,29.2,4.6,58.3,7.4,87.5c1.4,14.7,3.5,29.4,5.8,44c1.6,10.2,4,20.2,6.1,30.3c0.3,1.4,0.5,2.9,0.7,4.4
	L174,267.8z"/>
</svg>
