<svg id="Calque_1" data-name="Calque 1" xmlns="http://www.w3.org/2000/svg" viewBox="0 0 381.6 1633.8"><defs><style>.cls-1{fill:#190e03;}.cls-2{fill:#5e320b;}.cls-3{fill:#512c07;}.cls-4{fill:none;}.cls-5{fill:#c69a6d;}.cls-6{fill:#21683e;}.cls-7{fill:#207a44;}.cls-17,.cls-8{opacity:0.2;}.cls-16,.cls-17,.cls-8{isolation:isolate;}.cls-9{fill:#215e3b;}.cls-10{fill:#d8a873;}.cls-11{fill:#b53e3e;}.cls-12{fill:#3ebaba;}.cls-13{fill:#40a8a5;}.cls-14{fill:#348c8a;}.cls-15{fill:#a03f3f;}.cls-16,.cls-17{fill:#fff;}.cls-16{opacity:0.3;}</style></defs><title>boy-2</title><g id="Calque_4" data-name="Calque 4"><polyline class="cls-1" points="139.1 379.2 84.6 443.5 84.6 515 122.6 568 131.7 514.2 128.1 508 124.1 482.5 152.6 470.5 157.9 491.8 175 481.6 210.3 394.3 205.8 380.6 139.1 379.2"/><polygon class="cls-2" points="250.3 452.4 241.6 429.5 191.5 440.8 175 481.6 157.9 491.8 152.6 470.5 124.1 482.5 128.1 508 131.7 514.2 122.6 568 137.5 574.3 208.4 576.6 245.1 523 251.6 469.5 250.3 452.4"/><polygon class="cls-3" points="122.6 568 106.7 545.9 103.6 607.8 135 580.5 137.5 574.3 122.6 568"/><path class="cls-4" d="M989.8,862.4" transform="translate(-790.4 -202)"/><path class="cls-4" d="M1000.7,827" transform="translate(-790.4 -202)"/><polygon class="cls-5" points="233.3 975.5 220 975.5 221.3 988.4 229.1 990.2 233.3 988.4 233.3 975.5"/><polygon class="cls-6" points="245.7 1134.7 235 1087.8 211.6 1157.1 245.7 1134.7"/><polygon class="cls-7" points="77.1 978.2 67.6 993 72.4 1099 63.6 1164 150.4 1178 219.1 1154.5 238.6 1072.5 223.6 968.5 77.1 978.2"/><polygon class="cls-8" points="211 997.7 223.6 1069 209.6 1136.5 184.1 1164 220.4 1148.9 238.6 1072.5 223.6 968.5 159.6 978 117.2 977.6 142.1 981.5 216.3 978.2 211 997.7"/><polygon class="cls-9" points="86.6 968.5 77.1 978.2 159.6 978 223.6 968.5 211.1 964 86.6 968.5"/><polygon class="cls-2" points="87.4 948.5 86.6 978.2 159.6 978 211.3 970.3 211.1 948.5 164.1 941.5 87.4 948.5"/><polygon class="cls-10" points="60.6 992 57.6 1004 77.1 1012 151.1 1015 199.6 1010 223.6 1001.5 238.6 992 230.6 985.5 205.1 996.5 151.1 1002.5 96.1 1000.2 60.6 992"/><polygon class="cls-10" points="230.6 985.5 231.9 971.8 245.7 972.2 243 990.9 237.1 992.1 230.6 985.5"/><polygon class="cls-10" points="238.6 992 281.6 1061.3 290.3 1054.3 269.6 1024.7 258.3 997.7 244.3 983.3 238.6 992"/><polygon class="cls-10" points="238.6 992 244.3 1035.7 252.3 1061.3 256.3 1045 247.4 1025 246.1 1004 238.6 992"/><polygon class="cls-7" points="90.9 981.5 83.8 997.4 83.8 1010.7 85.3 1037.7 96.3 1034 92.9 1012.6 92.1 999.3 100.9 983.3 90.9 981.5"/><polygon class="cls-7" points="202.6 980 205.1 996.5 202.6 1008.9 198.3 1026.7 208.6 1025 211.1 1005.9 212.7 993.2 209.6 978.2 202.6 980"/><polygon class="cls-3" points="192.6 1321.7 230.1 1144.9 150.4 1178 83.8 1167.3 117.2 1324.5 127.9 1362.3 126.6 1421.7 125.1 1554.4 99.6 1589.2 99.6 1609.2 145.6 1612.5 248.7 1614.2 256.2 1599.2 156.1 1567.4 189.9 1379.6 198.6 1363.7 199.3 1335.7 192.6 1321.7"/><polygon class="cls-2" points="84.6 1167.4 138.6 1359.3 158.1 1580.3 141.6 1610.8 150.1 1633.8 320.9 1633.8 316.9 1617.3 205.6 1575.8 201.1 1373.3 212.6 1324.3 200.6 1281.3 211.6 1156.4 150.4 1177.3 84.6 1167.4"/><path class="cls-11" d="M989.8,862.4l10.8-35.4-10-24-65.2-20.5L857,842l-4,75,18,29.5,1,125s-10,79-11,80,93.5-8,93.5-8l54,8,5.5-111S989.2,864.6,989.8,862.4Z" transform="translate(-790.4 -202)"/><polygon class="cls-8" points="199.4 660.4 133.1 735.5 182.9 718 223.6 838.5 199.4 660.4"/><path class="cls-12" d="M790.4,234.9c.7,2,45.3,292.8,45.3,292.8L865,581.3l223.3,4.7,28.7-57,55-304.3L1110,261l-81,11.9-101-2-81-8.4Z" transform="translate(-790.4 -202)"/><polygon class="cls-8" points="381.6 22.7 319.6 59 238.6 70.9 137.6 68.9 137.6 68.9 176.4 72.8 212.8 74.8 252.1 76.2 299.8 70.9 334.1 65 261.2 341.2 122.6 380.3 297.9 383.9 326.6 327 381.6 22.7"/><polygon class="cls-13" points="381.4 14.8 374.6 9.9 264.3 0 132.9 0 54.1 9.9 0 32.9 56.6 60.5 137.6 68.9 238.6 70.9 319.6 59 381.6 22.7 381.4 14.8"/><polyline class="cls-14" points="374.6 9.9 354.6 20.7 313.3 43 236.1 56 136.6 53 62.6 44.3 28.8 32.9 63.1 20 138.6 13.8 239.1 12.4 270.6 13 354.6 20.7"/><polygon class="cls-15" points="200.2 601 135 580.5 105.6 619 142.3 694.3 210.3 625 200.2 601"/><polygon class="cls-3" points="179.6 656.3 183.6 650.3 266.9 403 198.9 237.7 184.3 167 156.3 137.7 135.6 132.3 115.6 143 109.6 171.7 135.6 209 98.9 191 116.9 225 160.9 244.3 210.3 394.3 112.9 635 142.3 694.3 179.6 656.3"/><polygon class="cls-8" points="96.3 1034 96.9 1012.8 92.9 1012.6 96.3 1034"/><polygon class="cls-8" points="92.1 999.3 100.9 983.3 96.1 1000.2 92.1 999.3"/><polygon class="cls-16" points="45.3 325.7 11.3 38.4 56.6 60.5 95.3 64.5 67.4 59.8 54.4 56.6 29.6 43 10.4 32.5 32.8 21.5 54.1 9.9 8.5 29.3 0 32.9 45.3 325.7"/><polygon class="cls-17" points="84.6 515 91.9 445.7 137.6 380.9 84.6 443.5 84.6 515"/><polygon class="cls-17" points="106.7 545.9 103.6 607.8 106.7 605.1 108.8 582.9 112.5 553.9 106.7 545.9"/><polygon class="cls-17" points="84.6 1167.4 138.6 1360 158.1 1581 148 1354 105.6 1170.6 84.6 1167.4"/><polygon class="cls-17" points="63.6 1164 72.4 1099 68.3 1008.4 73.6 1010.6 76.6 1100.8 63.6 1164"/><polygon class="cls-17" points="67.6 993 67.6 993.6 72.5 994.8 83.8 978.2 77.1 978.2 67.6 993"/></g></svg>