<?xml version="1.0" encoding="utf-8"?>
<!-- Generator: Adobe Illustrator 21.0.2, SVG Export Plug-In . SVG Version: 6.00 Build 0)  -->
<svg version="1.1" id="Calque_1" xmlns="http://www.w3.org/2000/svg" xmlns:xlink="http://www.w3.org/1999/xlink" x="0px" y="0px"
	 viewBox="0 0 2000 2000" style="enable-background:new 0 0 2000 2000;" xml:space="preserve">
<style type="text/css">
	.st0{fill:#916320;}
	.st1{fill:#EFD8B6;}
	.st2{fill:#705526;}
	.st3{fill:#549AAF;}
	.st4{fill:#4C4C4C;}
	.st5{fill:#666666;}
	.st6{opacity:0.2;enable-background:new    ;}
	.st7{opacity:0.2;fill:#FFFFFF;enable-background:new    ;}
</style>
<polygon class="st0" points="949.5,359.5 1193,520 1168.1,553 922,398 "/>
<path class="st1" d="M922,526v78l31,64l47,35l53-6v-56l-13-12l13-24c0,0,1-37,0-40s-12-16-12-16l-12,9l-15,6l-37-38H922z"/>
<polygon class="st2" points="922,526 922,520 958,520 1005.5,523 1058.5,526 1125,520 1128,569.5 1123.5,612 1101,647.5 1067,684 
	1053,697 1053,641 1040,629 1053,605 1053,565 1041,549 1029,558 1014,564 977,526 "/>
<path class="st3" d="M1133.8,508.2L1125,520l-66.5,6L958,520h-23.5L922,502.5l-6-12v-45l16.5-24l32.5-22l37.3-7c0,0,72.2,0.5,73.7,0
	s30.5,17.5,30.5,17.5l21.5,26.5l5,38.5L1133.8,508.2z"/>
<polygon class="st3" points="789,502 870.5,498 885,494 916,490.5 922,502.5 934.5,520 922,520 882,520 799.5,520 789,512 "/>
<polygon class="st1" points="991.9,697 997.5,728 1016.5,728 1041,720.5 1053.4,710.5 1053,697 1000,703 "/>
<path class="st3" d="M1053.4,703l7.6,15v14.5l-11.5,12c0,0-24.6,7-26.8,7s-22.7,2-22.7,2l-12.3-13l4.2-14.5l5.6,2h19l24.5-7.5
	l12.4-10V703z"/>
<polygon class="st3" points="987.7,740.5 924,703 822,667.5 816,659 922,589.5 922,520 873,520 731,614.5 704,660.5 714,694.5 
	928.5,815 972.5,781 "/>
<polygon class="st1" points="448.9,835.7 447.7,766.7 458.5,753.5 470.7,766.8 475.7,848.2 490.6,870 524.7,872.6 540.6,901.6 
	536,923.3 495.7,919.9 456.8,909.8 446,882.4 447.5,849.8 "/>
<polygon class="st3" points="1022.7,751.5 1000,753.5 987.7,740.5 972.5,781 1005,759.5 "/>
<polygon class="st3" points="1061,732.5 1102,755.5 1139.5,835.5 1152,942.5 1162.5,1017 1206,1110.5 1187.5,1135.3 1117,1174 
	1065,1185.5 1051.5,1180 1031.5,1087.5 992.5,977 965.7,918.9 972.5,781 1005,759.5 1022.7,751.5 1049.5,744.5 "/>
<polygon class="st4" points="1123.5,612 1222.5,481 1267.5,514 1202.5,593 1177,591 1158.5,603.5 1144,625 "/>
<path class="st3" d="M1051.5,1180l40.6,122.3l15.9,64.2l20,79c0,0,14,53.5,15.5,55s31,36.5,31,36.5l115.5-11.5l144.5-25.5l100.5,17
	l4-49l-14.5-49.5l-5-36.5l-129,17.5l-122,44.5l-12-103.5l-19.5-101l-49.5-104.2L1117,1174l-52,11.5L1051.5,1180z"/>
<polygon class="st3" points="1202.6,1115.1 1242.5,1167.1 1247.5,1240.1 1214.8,1285.7 1138.8,1308.2 1000,1338.5 894.5,1338.5 
	894.5,1386 889,1462.5 889,1587.5 854,1563.5 826.5,1575 767.5,1578 751,1562 727.5,1552.5 772,1478 777,1351.3 784.5,1262.5 
	810,1225 884.5,1218 1000,1195 1065,1185.5 1117,1174 1187.5,1135.3 "/>
<path class="st3" d="M972.5,781l32.5-21.5l17.7-8l38.3,6.5l31.5,42l9.5,51l-31,40l-115,30.5H691L502,937l9.5-41.5l-19-36l199-12.5
	c0,0,140.5-24,142-24.5s95-7.5,95-7.5L972.5,781z"/>
<polygon class="st5" points="1543.5,1363.5 1562,1360.5 1594,1378.5 1618,1594 1601.5,1599.5 1586.5,1592 1536.5,1499.2 1539,1468 
	1524.5,1418.5 1520.9,1392 "/>
<path class="st5" d="M737.1,1556.4L608,1607.5v17c0,0,28,13.5,31.5,13s214.5-11,216-12S876,1599,876,1599l-3.7-22.9l-18.3-12.6
	l-27.5,11.5l-59,3l-16.5-16L737.1,1556.4z"/>
<polygon class="st6" points="1106.5,410 1114.3,444.3 1110.4,490.5 1102,511.4 1058.5,526 1125,520 1133.8,508.2 1133,475 
	1128,436.5 "/>
<polygon class="st6" points="1125,520 1102,522.1 1058.5,526 958,520 922,520 922,526 977,526 1058.5,532.3 1102.8,530.2 
	1106.3,567.7 1106.3,614.5 1085.9,649.7 1053,697 1101,647.5 1123.5,612 1128,569.5 "/>
<polygon class="st6" points="922,548.7 835,618.2 789,653 797.2,675 889.3,712.5 945.4,736.6 978.1,766.1 987.7,740.5 924,703 
	822,667.5 816,659 922,589.5 "/>
<polygon class="st6" points="1053,697 1000,703 1004,728 1016.5,728 1041,720.5 1053.4,710.5 "/>
<polygon class="st6" points="1053.4,703 1053.4,710.5 1041,720.5 1016.5,728 1000,753.5 1022.7,751.5 1049.5,744.5 1061,732.5 
	1061,718 "/>
<path class="st6" d="M1061,732.5l-11.5,12l-26.8,7l38.3,6.5l31.5,42l9.5,51l-31,40c0,0-70.2,18.6-68.6,18.2
	c1.6-0.4,65.6-8.2,65.6-8.2l34-21.5l16.5-12l7,103.5l14,85l48,79.3l18.5-24.8l-43.5-93.5l-23-181.5l-37.5-80L1061,732.5z"/>
<polygon class="st6" points="1184,1294 1213,1360.5 1220.5,1450 1226.5,1531.8 1290,1525.5 1434.5,1500 1535,1517 1539,1468 
	1524.5,1418.5 1519.5,1382 1390.5,1399.5 1268.5,1444 1256.5,1340.5 1239.3,1251.5 1214.8,1285.7 "/>
<polygon class="st6" points="1543.5,1363.5 1562,1360.5 1594,1378.5 1618,1594 1601.5,1599.5 1586.5,1592 1536.5,1499.2 1539,1468 
	1524.5,1418.5 1520.9,1392 "/>
<polygon class="st6" points="1242.5,1167.1 1202.6,1115.1 1187.5,1135.3 1117,1174 1065,1185.5 1121.5,1180.5 1189.5,1146.5 
	1214.5,1178.5 1208.5,1247 1179.5,1275.5 1089.2,1297.4 971.7,1310.7 895.8,1316.5 870.2,1334.2 869,1387 871.7,1452 863.1,1570.6 
	889,1587.5 889,1462.5 894.5,1386 894.5,1338.5 1000,1338.5 1096.4,1317.5 1214.8,1285.7 1247.5,1240.1 "/>
<polygon class="st6" points="751,1562 763,1581 820,1581 848,1591.5 840,1613.5 639.5,1637.5 855.5,1625.5 876,1599 872.3,1576.1 
	854,1563.5 826.5,1575 767.5,1578 "/>
<polygon class="st6" points="498.3,870.6 490.6,870 475.7,848.2 470.7,766.8 468.3,829.8 468.3,855 469.2,862 473.2,873 479,880.5 
	490,884 507.2,887.5 "/>
<polygon class="st6" points="507.2,887.5 528.2,867 586.8,856.8 590,853.4 492.5,859.5 "/>
<polygon class="st6" points="1222.5,481 1240.3,517.7 1177,591 1202.5,593 1267.5,514 "/>
<polygon class="st7" points="1002.3,392.5 968.7,403.3 940,424 926.3,444 922,485.7 932.4,517.1 922,502.5 916,490.5 916,445.5 
	932.5,421.5 965,399.5 "/>
<path class="st7" d="M873,520l-70-2.9l-4.5-7.3v-4.5c0,0,72-3,72.8-3s17.1-4.2,17.1-4.2l25.4-7.2L885,494l-14.5,4l-81.5,4v10l10.5,8
	H873z"/>
<polygon class="st7" points="886.8,520 736.2,619.5 714.2,660.2 720.5,692.8 928.5,815 714,694.5 704,660.5 731,614.5 873,520 "/>
<polygon class="st7" points="942.3,526 934.5,602.3 953,668 922,604 922,526 "/>
<polygon class="st7" points="691.5,847 841.7,838.4 937.5,835.2 989.5,803 1022.7,751.5 1005,759.5 972.5,781 928.5,815 
	833.5,822.5 "/>
<polygon class="st7" points="965.7,918.9 992.5,977 1031.5,1087.5 1051.5,1180 1065,1185.5 1045.7,1080.3 1005.7,967 976.9,915.9 
	"/>
<polygon class="st7" points="1007.8,1193.9 890.3,1223.7 817.7,1237 800.3,1269.7 782.3,1477.7 737.1,1556.4 727.5,1552.5 772,1478 
	777,1351.3 784.5,1262.5 810,1225 884.5,1218 "/>
<polygon class="st7" points="751,1562 613.7,1609.3 608,1624.5 608,1607.5 737.1,1556.4 "/>
</svg>
