<svg id="Calque_1" data-name="Calque 1" xmlns="http://www.w3.org/2000/svg" viewBox="0 0 497 1584.2"><defs><style>.cls-1{fill:#549aaf;}.cls-2{fill:#66afbf;}.cls-3{fill:#efd8b6;}.cls-4{fill:#705526;}.cls-5{opacity:0.35;}.cls-10,.cls-12,.cls-13,.cls-5,.cls-9{isolation:isolate;}.cls-6{fill:none;}.cls-7{fill:#486c75;}.cls-8{fill:#666;}.cls-10,.cls-9{opacity:0.2;}.cls-10{fill:#fff;}.cls-11{fill:#ce4545;}.cls-12{opacity:0.19;}.cls-13{opacity:0.3;}</style></defs><title>worker-3</title><g id="Calque_4" data-name="Calque 4"><polygon class="cls-1" points="153 43 189 5 329 0 362 37 376 108 360 114 255 121 177 121 153 101 153 43"/><polyline class="cls-2" points="153 93 21.5 106 29.5 115.5 97 121 177 121 153 101 153 93"/><polyline class="cls-3" points="367.2 111.3 358.7 203.7 305.3 287 270 297 219.3 297 167.3 235 157.3 167.7 157.3 121 255 121 360 114 367.2 111.3"/><path class="cls-4" d="M1576.3,271.3h42s34,16.7,34.7,18.7,10.7,35.3,10.7,35.3l14.7-22.7,21.3-8,12.7,24.7-19.3,43.3,15.3,18-5.1,53.3,21.1-6,53.3-83.3,8.5-92.4-7.2,2.7-105,7h-97.7Z" transform="translate(-1419 -141)"/><polygon class="cls-3" points="230.7 297 230.7 321 262.3 321 282 312.3 284.2 293 270 297 230.7 297"/><polygon class="cls-5" points="230.7 297 230.7 321 262.3 321 282 312.3 284.2 293 270 297 230.7 297"/><polygon class="cls-6" points="283.7 297 298 303 282 312.3 262.3 321 230.7 321 222 309 230.7 303 283.7 297"/><polygon class="cls-1" points="222 309 212.5 336.5 166.5 416.5 147.5 483 157 576.5 168 685 162 777.5 209.5 783 231.5 777 280 769.5 308.5 775 352 759 335 651.5 338 570.5 352 480.5 346 378.5 328.5 344 302 321 298 303 283.7 297 230.7 303 222 309"/><polygon class="cls-1" points="170.2 555.1 162 635.6 154.5 688.3 137.9 733.1 125.7 760.3 152.1 796.1 182.6 817.8 189 756.2 208.5 685.9 170.2 555.1"/><polygon class="cls-7" points="125.7 760.3 126.3 791.2 135.7 773.9 125.7 760.3"/><polygon class="cls-3" points="135.7 773.9 126.3 791.2 111.2 806.4 95.7 815.2 89.4 828 86.5 859.1 97.8 848.4 103.8 830.5 109.5 826.8 104.2 838.5 131.8 839.7 153.7 854.6 156.8 877.6 165.6 863.2 161.4 840.3 171.7 810 152.1 796.1 135.7 773.9"/><polygon class="cls-3" points="104.2 838.5 99.9 851.5 103.4 861.4 140.4 888.2 151.6 886.2 156.8 877.6 153.7 854.6 131.8 839.7 104.2 838.5"/><polygon class="cls-1" points="383.7 853.3 383.7 902 383.7 979 362 1123 362 1219 400 1350 444 1441 435 1457 460 1477 411 1497 341 1497 341 1451 306 1337 265 1244 242 1188 251 1130 249.8 1061 183.6 856 383.7 853.3"/><path class="cls-8" d="M1855.4,1627.6,1870,1652v31l-27.5,28s-121.5,13-123.5,13-36.3,1.2-36.3,1.2L1652,1723l-12.3-14.5,12.4-19.8,34.4-15.5,83-35.2H1830Z" transform="translate(-1419 -141)"/><polygon class="cls-9" points="419.7 1493.4 411 1497 405.4 1497 398.4 1498.6 343.5 1551.5 289 1527 220.7 1567.5 233 1582 263.7 1584.2 300 1583 423.5 1570 451 1542 451 1511 436.4 1486.6 419.7 1493.4"/><polygon class="cls-9" points="383.7 853.3 383.7 979 346 984.8 383.7 853.3"/><polygon class="cls-8" points="374.1 1454.3 408 1516.1 393 1561.4 343.4 1575.1 175.5 1584.2 122.3 1584.2 108.8 1564.2 118.8 1538.7 238.1 1494 285.4 1530.7 326.8 1510 372.1 1461.4 374.1 1454.3"/><polygon class="cls-1" points="168 778.2 163.9 842.8 170.5 887.6 181.5 1003.6 186.1 1119.6 175.8 1179.6 202.5 1300.2 239.7 1436.1 247.7 1447.4 235 1492.1 288.3 1535.4 329.7 1514.7 405.4 1497 381.7 1442.1 352.3 1393.4 335.8 1292.2 330.5 1228.2 309.2 1132.2 327.8 1051.6 377.2 898.2 386.2 855.9 378.2 809.6 352 759 308.5 775 278.3 766.5 231.5 777 209.5 783 168 778.2"/><polygon class="cls-9" points="352 759 319.7 771 318.5 786.5 360 775.3 352 759"/><polygon class="cls-9" points="278.3 766.5 223.4 779.1 209.5 782.9 168 778.2 167.7 783.1 192.8 786.4 221.7 787.8 244.5 783 283.5 782.9 278.3 766.5"/><polygon class="cls-9" points="279.9 334 322.3 358.3 340.3 411.7 344.3 455.7 340.4 495 331.4 558.5 325 699 315.9 821.7 310 843.3 308 904 287 914.7 282.4 844 302.3 687 326.7 414.5 279.9 334"/><polygon class="cls-1" points="278.9 334 219.9 359.5 209.9 422 216.4 485.5 226.4 577.5 244.4 697 233 786.4 228.9 818.5 209.9 846.5 247.7 857.8 281.4 844 302.4 834.5 306.4 814 306.4 748 313.4 676.5 313.4 628.5 322.9 551.5 330.4 455 324.4 402.5 306.9 362 278.9 334"/><polygon class="cls-10" points="167.7 783.4 163.8 843.1 169.6 882.1 171.9 902.2 181.5 1003.8 181.6 1007.7 190.9 1247.9 202.5 1300.4 239.6 1436.2 247.7 1447.4 235 1492.2 237.6 1494.3 258.4 1443.6 245.7 1428.9 214.8 1288.3 206.8 1237.2 190.3 997.2 180 901.2 176.7 867.4 170 841.9 167.7 783.4"/><polygon class="cls-11" points="39 897 441 850.3 465 862 479 884 497 1016 488 1026.7 467.7 1031 460 991.1 468.7 981.7 460 929.7 451 883 442 874 428.3 871.7 47.3 916.7 31 937.3 25.3 956 22.7 992.7 28 1058 31 1092 16.5 1094.7 7.3 1080 0 1016 0 976.7 5.3 940 16.5 915.3 39 897"/><polygon class="cls-11" points="25.6 1029 460 969 470.3 1050 30.1 1113 25.6 1029"/><polygon class="cls-11" points="30.1 1113 44 1269 490.1 1204.7 470.3 1050 30.1 1113"/><polygon class="cls-3" points="222.1 850.1 222.1 863 206 879.7 217.3 915.7 237.3 927.7 289.3 917.7 300 903.8 302.9 886.2 289 887.9 292 868.3 301.3 865.3 297.9 836.6 247.8 857.8 222.1 850.1"/><path class="cls-9" d="M1748,141l15.5,46v54.5s-84.5,10.1-86.5,10.8-81,9.7-81,9.7h78l105-7,16-6-14-71Z" transform="translate(-1419 -141)"/><polygon class="cls-10" points="111 97.2 35 107 37 113.2 97 121 29.5 115.5 21.5 106 111 97.2"/><polygon class="cls-12" points="347 114.9 349 197 305.3 287 358.7 203.7 367.2 111.3 360 114 347 114.9"/><polygon class="cls-9" points="104.2 838.5 131.6 830.4 159.1 849.2 156.8 877.6 153.7 854.6 131.8 839.7 104.2 838.5"/><polygon class="cls-9" points="289 887.9 289 904 301 897.5 302.9 886.2 289 887.9"/><polygon class="cls-10" points="249.8 346.6 225.3 363.7 217.3 425 233.5 573 253.3 694.3 235.3 820.3 209.9 846.5 228.9 818.5 244.4 697 236.5 644.5 226.4 577.5 209.9 422 219.9 359.5 249.8 346.6"/><polygon class="cls-13" points="290.9 875.5 441.5 857.8 462.5 866.9 479 884 465 862 441 850.3 295.4 867.2 292 868.3 290.9 875.5"/><polygon class="cls-10" points="207.4 884 41.5 904 16.5 927.7 9.2 939.8 2.3 977 1.7 1015.7 7.3 1080 0 1016 0 976.7 5.3 940 16.5 915.3 39 897 208.2 877.4 206 879.7 207.4 884"/><polygon class="cls-9" points="30.1 1113 31 1123 473 1071 470.3 1050 30.1 1113"/><polygon class="cls-9" points="348.7 1225.4 330.1 1228 335.3 1289.7 352.3 1393.4 381.7 1442.1 383.4 1471.3 398.4 1498.6 405.4 1497 412.5 1497 409.2 1483 396.5 1462.2 393.4 1428.5 366.2 1383.8 349.4 1290 348.7 1225.4"/><polygon class="cls-9" points="468.7 981.7 466.6 969 491.1 972.5 497 1016 488 1026.7 467.7 1031 460 991.1 468.7 981.7"/><polygon class="cls-10" points="254.8 1506.9 122.8 1543.9 113.8 1561.7 122.3 1584.2 108.8 1564.2 118.8 1538.7 238.1 1494 254.8 1506.9"/><polygon class="cls-10" points="230.7 303 222 309 212.5 336.5 166.5 416.5 147.5 483 168 685 162 777.5 173 777.5 176 677 163 542.5 155.5 480.5 175.5 417 216.7 336 222.8 310.3 230.7 303"/><polygon class="cls-10" points="170.2 555.1 154.5 688.3 125.7 760.3 135.7 773.9 161.4 692.6 170.2 555.1"/><polygon class="cls-9" points="444 1441 428.7 1452.7 435 1457 444 1441"/></g></svg>