<svg id="Calque_1" data-name="Calque 1" xmlns="http://www.w3.org/2000/svg" viewBox="0 0 535.1 1559.5"><defs><style>.cls-1{fill:#549aaf;}.cls-2{fill:#66afbf;}.cls-3{fill:#efd8b6;}.cls-4{fill:#705526;}.cls-5{opacity:0.35;}.cls-10,.cls-12,.cls-13,.cls-5,.cls-9{isolation:isolate;}.cls-6{fill:none;}.cls-7{fill:#486c75;}.cls-8{fill:#666;}.cls-9{fill:#fff;}.cls-10,.cls-9{opacity:0.2;}.cls-11{fill:#ce4545;}.cls-12{opacity:0.19;}.cls-13{opacity:0.3;}</style></defs><title>worker-2</title><g id="Calque_3" data-name="Calque 3"><polygon class="cls-1" points="223.9 43 259.9 5 399.9 0 432.9 37 446.9 108 430.9 114 325.9 121 247.9 121 223.9 101 223.9 43"/><polyline class="cls-2" points="223.9 93 92.4 106 100.4 115.5 167.9 121 247.9 121 223.9 101 223.9 93"/><polyline class="cls-3" points="438.1 111.3 429.6 203.7 376.2 287 340.9 297 290.2 297 238.2 235 228.2 167.7 228.2 121 325.9 121 430.9 114 438.1 111.3"/><path class="cls-4" d="M938.8,292.7h42s34,16.7,34.7,18.7,10.7,35.3,10.7,35.3l14.7-22.7,21.3-8,12.7,24.7L1055.6,384l15.3,18-5.1,53.3,21.1-6,53.3-83.3,8.5-92.4-7.2,2.7-105,7H938.8Z" transform="translate(-710.6 -162.3)"/><polygon class="cls-3" points="301.6 297 301.6 321 333.2 321 352.9 312.4 355.1 293 340.9 297 301.6 297"/><polygon class="cls-5" points="301.6 297 301.6 321 333.2 321 352.9 312.4 355.1 293 340.9 297 301.6 297"/><polygon class="cls-6" points="354.6 297 368.9 303 352.9 312.4 333.2 321 301.6 321 292.9 309 301.6 303 354.6 297"/><polygon class="cls-1" points="361.9 534.4 401 605.1 424.9 652.7 436.8 699 442.3 728.3 484.4 742.6 521.9 743.1 491.9 688.8 467.9 620 434.8 506.6 410.2 406.4 361.9 534.4"/><polygon class="cls-1" points="292.9 309 283.4 336.5 237.4 416.5 218.4 483 227.9 576.5 238.9 685 232.9 777.5 280.4 783 302.4 777 350.9 769.5 379.4 775 422.9 759 405.9 651.5 408.9 570.5 422.9 480.5 416.9 378.5 399.4 344 372.9 321 368.9 303 354.6 297 301.6 303 292.9 309"/><polygon class="cls-7" points="442 727.9 460.2 752.9 458.1 733.4 442 727.9"/><polygon class="cls-3" points="458.1 733.4 460.2 752.9 456.4 774 448.7 790.1 450.9 804.2 466.2 831.4 469.3 816.2 464.1 798.1 466.7 791.8 469 804.4 492.3 789.7 518.8 789.4 534.5 806.5 533.5 789.7 517 773.3 508.2 742.5 484.2 742.2 458.1 733.4"/><polygon class="cls-3" points="469 804.4 472.9 817.6 481.4 823.7 527.1 824.6 535.1 816.5 534.5 806.5 518.8 789.4 492.3 789.7 469 804.4"/><polygon class="cls-8" points="412.4 1460.9 427.6 1497.1 416.5 1534 342.3 1553.8 160.4 1559.5 138.3 1555.6 132.7 1532.1 151 1511.7 272.7 1450.5 302.7 1501.5 348.6 1496.6 408.1 1466.8 412.4 1460.9"/><polygon class="cls-9" points="283.4 1468.6 152.9 1517.8 138.2 1531.3 138.3 1555.3 132.7 1531.9 151 1511.5 272.8 1450.5 283.4 1468.6"/><path class="cls-8" d="M1118.5,1497.9l25.4,12.7,16.7,26.1-8,38.4s-95.2,76.6-96.9,77.6-29.9,20.6-29.9,20.6l-27,14.7-17.7-5.3-.8-23.6,20.6-31.6,50.8-74.5,50.9-32.7Z" transform="translate(-710.6 -162.3)"/><polygon class="cls-1" points="454.6 853.4 430.9 900.7 396.4 966.5 253.4 1125.7 243.4 1156.9 267.4 1193.7 350.8 1272.7 418.4 1335.6 399.9 1376.2 359.9 1403.7 292.4 1430.7 252.4 1366.7 209.4 1303.7 130.1 1181.4 122.4 1168.7 122.4 1141.2 160.4 1051.7 254.5 856 454.6 853.4"/><polygon class="cls-1" points="238.9 777.9 227.6 848.7 238.9 884.7 249.9 1000.7 254.5 1116.7 244.2 1176.7 270.9 1297.4 262.3 1416.3 270.3 1427.7 257.7 1472.3 302.7 1501.5 348.6 1496.6 408.1 1466.8 412.4 1460.9 412.4 1460.9 404.3 1422.3 422.9 1374.1 404.2 1289.4 398.9 1225.4 377.6 1129.4 396.2 1048.7 445.6 895.4 454.6 853.1 446.6 806.7 422.9 758.7 379.4 774.7 350.9 769.2 302.4 776.7 280.4 782.7 238.9 777.9"/><polygon class="cls-10" points="350.8 334 386.7 362 404.4 412.4 405.1 457.7 397.1 499 377.1 603.4 364.1 689.7 346.4 802.7 329.4 846.4 317.7 905.6 301.6 880.7 320.6 805 340.1 629 387.1 417.5 350.8 334"/><polygon class="cls-10" points="422.9 759 379.4 774.7 351.6 769.4 350.5 776.2 361 778 379.3 781.3 429.3 771.9 422.9 759"/><polygon class="cls-10" points="294.3 779.5 280.4 783.3 238.9 778.6 246.7 781.8 265.3 785.1 292.6 788.2 315.4 783.4 294.3 779.5"/><polygon class="cls-1" points="355.3 336.7 294 356 277.6 417.1 277.5 481 278 573.5 283.6 694.2 263.1 782 255.7 813.5 234 839.4 270.3 854.6 305.3 844.3 327.2 837 333.3 817 340.1 751.3 354.4 680.9 359.3 633.2 376.7 557.6 394.1 462.3 393.5 409.5 380.3 367.4 355.3 336.7"/><polygon class="cls-9" points="238.9 774.2 227.6 845 238.1 878.1 240.5 898.2 250.2 1003.8 259.1 1244.2 270.9 1297.4 262.3 1416.3 270.3 1427.7 257.7 1472.3 270.2 1480.4 278.4 1429.3 267.3 1415.7 277.9 1284.8 269.8 1233.7 260.2 992.4 249.6 898.4 242.2 863.2 238 842.5 238.9 774.2"/><polygon class="cls-9" points="240.5 902.2 231.8 903.3 176.6 1018 159 1226.6 264.8 1386.5 265.9 1371 210.4 1285.2 169.9 1226.8 182.2 1017.9 240.5 902.2"/><polygon class="cls-11" points="59.8 856.3 464.2 872.9 486.1 888.2 496.5 912.1 493.7 1045.3 483.1 1054.4 462.4 1055.6 461 1014.9 471 1007 470.6 954.3 469 906.8 461.5 896.5 448.4 892 65 877.1 45.6 894.9 37.1 912.5 28.8 948.3 23.9 1013.7 21.5 1047.7 6.8 1048.1 0 1032.2 2.8 967.8 8.9 928.9 19.9 893.6 34.7 870.9 59.8 856.3"/><polygon class="cls-11" points="26 984.7 464.5 993.1 462 1074.7 17.4 1068.3 26 984.7"/><polygon class="cls-11" points="17.4 1068.3 6.8 1224.6 457.4 1230.6 462 1074.7 17.4 1068.3"/><polygon class="cls-3" points="245.7 844.2 244.3 857 226.6 872 234.2 908.9 252.9 922.9 305.6 918.3 317.7 905.6 322.4 888.5 308.3 888.7 313.4 869.5 322.9 867.5 322.5 838.6 270.4 854.6 245.7 844.2"/><polygon class="cls-7" points="521.7 742.7 511.3 753.2 508.2 742.5 521.7 742.7"/><path class="cls-10" d="M1110.5,162.3l15.5,46v54.5s-84.5,10.1-86.5,10.8-81,9.7-81,9.7h78l105-7,16-6-14-71Z" transform="translate(-710.6 -162.3)"/><polygon class="cls-9" points="181.9 97.2 105.9 107 107.9 113.3 167.9 121 100.4 115.5 92.4 106 181.9 97.2"/><polygon class="cls-12" points="417.9 114.9 419.9 197 376.2 287 429.6 203.7 438.1 111.3 430.9 114 417.9 114.9"/><polygon class="cls-10" points="469 804.4 486.8 782.1 520.2 781.9 534.5 806.5 518.8 789.4 492.3 789.7 469 804.4"/><polygon class="cls-10" points="308.3 888.7 306.7 904.7 319.4 899.4 322.4 888.5 308.3 888.7"/><polygon class="cls-9" points="325 346.2 298.9 360.7 284.7 420.9 285.6 569.8 292.8 692.5 261.9 816 234 839.4 255.7 813.5 283.6 694.2 281.2 641.2 278 573.5 277.6 417.1 294 356 325 346.2"/><polygon class="cls-13" points="312 874.4 463.5 880.4 482.8 892.6 496.5 912.1 486.1 888.2 464.2 872.9 317.8 866.9 314.2 867.5 312 874.4"/><polygon class="cls-9" points="228.2 869.8 61.2 863.6 32.8 883.1 23.7 894 11.1 929.6 4.4 967.7 0 1032.2 2.8 967.8 8.9 928.9 19.9 893.6 34.7 870.9 59.8 856.3 230.1 863.3 227.5 865.3 228.2 869.8"/><polygon class="cls-10" points="17.4 1068.3 16.7 1078.3 461.4 1095.9 462 1074.7 17.4 1068.3"/><polygon class="cls-9" points="301.6 303 292.9 309 283.4 336.5 237.4 416.5 218.4 483 238.9 685 232.9 777.5 243.9 777.5 246.9 677 233.9 542.5 226.4 480.5 246.4 417 287.6 336 293.7 310.4 301.6 303"/><polygon class="cls-10" points="232.4 1227.6 258.5 1228 259.1 1244.2 270.9 1301.4 270 1314.1 232.4 1227.6"/><polygon class="cls-10" points="248.8 989 247.4 973.3 241.2 988.8 248.8 989"/><polygon class="cls-10" points="463.9 1012.7 462.4 1055.6 483.1 1054.4 493.7 1045.3 494.4 1012.7 471 997.7 471 1007 463.9 1012.7"/></g></svg>