<svg id="Calque_1" data-name="Calque 1" xmlns="http://www.w3.org/2000/svg" viewBox="0 0 497 1585.9"><defs><style>.cls-1{fill:#549aaf;}.cls-2{fill:#66afbf;}.cls-3{fill:#efd8b6;}.cls-4{fill:#705526;}.cls-5{opacity:0.35;}.cls-10,.cls-12,.cls-13,.cls-5,.cls-9{isolation:isolate;}.cls-6{fill:none;}.cls-7{fill:#486c75;}.cls-8{fill:#666;}.cls-10,.cls-9{opacity:0.2;}.cls-10{fill:#fff;}.cls-11{fill:#ce4545;}.cls-12{opacity:0.19;}.cls-13{opacity:0.3;}</style></defs><title>worker-1</title><g id="Calque_2" data-name="Calque 2"><polygon class="cls-1" points="153 43 189 5 329 0 362 37 376 108 360 114 255 121 177 121 153 101 153 43"/><polyline class="cls-2" points="153 93 21.5 106 29.5 115.5 97 121 177 121 153 101 153 93"/><polyline class="cls-3" points="367.2 111.3 358.7 203.7 305.3 287 270 297 219.3 297 167.3 235 157.3 167.7 157.3 121 255 121 360 114 367.2 111.3"/><path class="cls-4" d="M292.3,294.3h42S368.3,311,369,313s10.7,35.3,10.7,35.3l14.7-22.7,21.3-8,12.7,24.7L409,385.7l15.3,18L419.2,457l21.1-6,53.3-83.3,8.5-92.4L495,278l-105,7H292.3Z" transform="translate(-135 -164)"/><polygon class="cls-3" points="230.7 297 230.7 321 262.3 321 282 312.3 284.2 293 270 297 230.7 297"/><polygon class="cls-5" points="230.7 297 230.7 321 262.3 321 282 312.3 284.2 293 270 297 230.7 297"/><polygon class="cls-6" points="283.7 297 298 303 282 312.3 262.3 321 230.7 321 222 309 230.7 303 283.7 297"/><polygon class="cls-1" points="222 309 212.5 336.5 166.5 416.5 147.5 483 157 576.5 168 685 162 777.5 209.5 783 231.5 777 280 769.5 308.5 775 352 759 335 651.5 338 570.5 352 480.5 346 378.5 328.5 344 302 321 298 303 283.7 297 230.7 303 222 309"/><polygon class="cls-1" points="154.2 549.4 131.5 627 114.5 677.5 90 718.5 73 743 92.5 783 118.5 810 136 750.5 168 685 154.2 549.4"/><polygon class="cls-7" points="73 743 68 773.5 80.4 758.2 73 743"/><polygon class="cls-3" points="80.4 758.2 68 773.5 50.3 785.7 33.5 791.5 25 803 16.5 833 29.5 824.5 38.7 808 45 805.5 37.7 816 64.5 822.2 83.4 840.8 82.2 864 93.5 851.5 93.5 828.2 109.2 800.3 92.5 783 80.4 758.2"/><polygon class="cls-3" points="37.7 816 31 828 32.7 838.3 64.2 871.5 75.5 871.5 82.2 864 83.4 840.8 64.5 822.2 37.7 816"/><path class="cls-8" d="M571.4,1650.6,586,1675v31l-27.5,28S437,1747,435,1747s-57,2.9-57,2.9l-30.7-2.2-8-15.3,10.3-14.7,44.3-22,59.7-30.8,92.3-3.9Z" transform="translate(-135 -164)"/><polygon class="cls-1" points="383.7 853.3 383.7 902 383.7 979 362 1123 362 1219 400 1350 444 1441 435 1457 460 1477 411 1497 318.7 1500.9 341 1451 306 1337 265 1244 242 1188 251 1130 249.8 1061 183.6 856 383.7 853.3"/><polygon class="cls-9" points="383.7 876.9 363.2 983.5 326.3 987.5 378.5 877.6 383.7 876.9"/><polygon class="cls-1" points="168 778.2 156.7 849 152 890.7 126 1000 113.6 1121.3 131 1193 182 1308 199.2 1366.4 206.9 1381.4 206.9 1439.9 263.2 1465.7 304.6 1445.1 349.9 1396.4 356.6 1372.4 327.2 1323.7 312.1 1284 258.4 1142 260.1 1111.3 295.9 1045 374.7 895.7 383.7 853.3 375.7 807 352 759 308.5 775 280 769.5 231.5 777 209.5 783 168 778.2"/><polygon class="cls-9" points="352 759 319.7 771 318.5 786.5 360 775.3 352 759"/><polygon class="cls-9" points="278.3 766.5 223.4 779.1 209.5 782.9 168 778.2 167.1 783.7 192.8 786.4 221.7 787.8 244.5 783 283.5 782.9 278.3 766.5"/><polygon class="cls-9" points="279.9 334 322.3 358.3 340.3 411.7 344.3 455.7 340.4 495 331.4 558.5 325 699 315.9 821.7 310 843.3 308 904 287 914.7 282.4 844 302.3 687 326.7 414.5 279.9 334"/><polygon class="cls-1" points="278.9 334 219.9 359.5 209.9 422 216.4 485.5 226.4 577.5 244.4 697 233 786.4 228.9 818.5 209.9 846.5 247.7 857.8 281.4 844 302.4 834.5 306.4 814 306.4 748 313.4 676.5 313.4 628.5 322.9 551.5 330.4 455 324.4 402.5 306.9 362 278.9 334"/><polygon class="cls-10" points="168 778.2 156.7 849 152.8 883.8 148.7 904.7 126 1000 124.9 1015.3 157.7 1250.7 182 1308 199.2 1366.4 206.9 1381.4 206.9 1439.9 217.4 1428.5 214.7 1377 199.3 1339 169 1246 134.7 1003 157.7 903.6 166.3 866.7 167.1 846.5 168 778.2"/><polygon class="cls-11" points="39 897 441 850.3 465 862 479 884 497 1016 488 1026.7 467.7 1031 460 991.1 468.7 981.7 460 929.7 451 883 442 874 428.3 871.7 47.3 916.7 31 937.3 25.3 956 22.7 992.7 28 1058 31 1092 16.5 1094.7 7.3 1080 0 1016 0 976.7 5.3 940 16.5 915.3 39 897"/><polygon class="cls-11" points="25.6 1029 460 969 470.3 1050 30.1 1113 25.6 1029"/><polygon class="cls-11" points="30.1 1113 44 1269 490.1 1204.7 470.3 1050 30.1 1113"/><polygon class="cls-3" points="222.1 850.1 222.1 863 206 879.7 217.3 915.7 237.3 927.7 289.3 917.7 300 903.8 302.9 886.2 289 887.9 292 868.3 301.3 865.3 297.9 836.6 247.8 857.8 222.1 850.1"/><polygon class="cls-8" points="351.9 1389.3 378.7 1417.9 381.2 1456.4 318.7 1500.9 150.2 1569.9 128.2 1573.9 114.7 1553.9 124.7 1528.4 217.4 1428.5 263.2 1465.7 304.6 1445.1 349.9 1396.4 351.9 1389.3"/><polygon class="cls-7" points="118.5 810 103.7 810 109.2 800.3 118.5 810"/><path class="cls-9" d="M464,164l15.5,46v54.5S395,274.6,393,275.3s-81,9.7-81,9.7h78l105-7,16-6-14-71Z" transform="translate(-135 -164)"/><polygon class="cls-10" points="111 97.2 35 107 37 113.2 97 121 29.5 115.5 21.5 106 111 97.2"/><polygon class="cls-12" points="347 114.9 349 197 305.3 287 358.7 203.7 367.2 111.3 360 114 347 114.9"/><polygon class="cls-9" points="154.2 549.4 152 643.7 156.7 708.2 168 685 154.2 549.4"/><polygon class="cls-9" points="37.7 816 66 813 89.7 836.6 82.2 864 83.4 840.8 64.5 822.2 37.7 816"/><polygon class="cls-9" points="289 887.9 289 904 301 897.5 302.9 886.2 289 887.9"/><polygon class="cls-10" points="249.8 346.6 225.3 363.7 217.3 425 233.5 573 253.3 694.3 235.3 820.3 209.9 846.5 228.9 818.5 244.4 697 236.5 644.5 226.4 577.5 209.9 422 219.9 359.5 249.8 346.6"/><polygon class="cls-13" points="290.9 875.5 441.5 857.8 462.5 866.9 479 884 465 862 441 850.3 295.4 867.2 292 868.3 290.9 875.5"/><polygon class="cls-10" points="207.4 884 41.5 904 16.5 927.7 9.2 939.8 2.3 977 1.7 1015.7 7.3 1080 0 1016 0 976.7 5.3 940 16.5 915.3 39 897 208.2 877.4 206 879.7 207.4 884"/><polygon class="cls-9" points="30.1 1113 31 1123 473 1071 470.3 1050 30.1 1113"/><polygon class="cls-9" points="314.2 1230.1 292.9 1233.2 327.2 1323.7 356.6 1372.4 351.9 1389.3 378.7 1417.9 381.2 1456.4 318.7 1500.9 363 1481.6 383.7 1473 390.3 1445.3 388.2 1416.9 365.7 1383.7 367.7 1366.7 314.2 1230.1"/><polygon class="cls-9" points="468.7 981.7 466.6 969 491.1 972.5 497 1016 488 1026.7 467.7 1031 460 991.1 468.7 981.7"/><polygon class="cls-10" points="233.6 1441.7 128.7 1533.6 119.7 1551.4 128.2 1573.9 114.7 1553.9 124.7 1528.4 217.4 1428.5 233.6 1441.7"/><polygon class="cls-9" points="419.7 1493.4 405.4 1497 406 1507 343.5 1551.5 243 1585.9 300 1583 423.5 1570 451 1542 451 1511 436.4 1486.6 419.7 1493.4"/><polygon class="cls-10" points="230.7 303 222 309 212.5 336.5 166.5 416.5 147.5 483 168 685 162 777.5 173 777.5 176 677 163 542.5 155.5 480.5 175.5 417 216.7 336 222.8 310.3 230.7 303"/><polygon class="cls-10" points="154.2 549.4 114.5 677.5 73 743 80.4 758.2 120.5 683 154.2 549.4"/><polygon class="cls-9" points="444 1441 428.7 1452.7 435 1457 444 1441"/></g></svg>